# xmcd
#
# Track frame offsets:
#	150
#	10847
#	21860
#	35825
#	47132
#	62670
#	78695
#	89180
#	105222
#	120792
#	137607
#	152302
#	168105
#	182632
#
# Disc length: 2532 seconds
#
# Revision: 1
# Processed by: cddbd v1.5.2PL0 Copyright (c) Steve Scherf et al.
# Submitted via: audiograbber 1.83.01
#
DISCID=a509e20e
DTITLE=Various Artist - CDX 29 April 1992
DYEAR=1992
DGENRE=Country
TTITLE0=Ray Price - A Way To Free Myself
TTITLE1=Lacy J Dalton - Bye Bye Love
TTITLE2=Asleep At The Wheel - Get Your Kicks On Route 66
TTITLE3=Dennis Robbins - Home Sweet Home
TTITLE4=Molly and The Heymakers - Jimmy McCarthy's Truck
TTITLE5=MacMcAnally - Live And Learn
TTITLE6=Holly Dunn - No Love Have I
TTITLE7=Chris LeDoux - Riding For A Fall
TTITLE8=B.B. Watson - Say Goodbye
TTITLE9=Joe Diffie - Ships That Don't Come In
TTITLE10=Dwight Yoakam - The Heart That You Own
TTITLE11=Roger Springer - The Right One Left
TTITLE12=Neal McCoy - Where Forever Begins
TTITLE13=Bellamy Brothers - Liners
EXTD=
EXTT0=
EXTT1=
EXTT2=
EXTT3=
EXTT4=
EXTT5=
EXTT6=
EXTT7=
EXTT8=
EXTT9=
EXTT10=
EXTT11=
EXTT12=
EXTT13=
PLAYORDER=
